<svg width="33" height="32" viewBox="0 0 33 32" fill="none" xmlns="http://www.w3.org/2000/svg">
<path d="M3.33331 14.0389C3.33331 13.4542 3.58912 12.8989 4.03343 12.5189L15.0334 3.11167C15.7818 2.47162 16.8848 2.47162 17.6332 3.11166L28.6332 12.5189C29.0775 12.8989 29.3333 13.4542 29.3333 14.0389V27C29.3333 28.1046 28.4379 29 27.3333 29H21.5833C20.4787 29 19.5833 28.1046 19.5833 27V21.4706C19.5833 20.366 18.6879 19.4706 17.5833 19.4706H15.0833C13.9787 19.4706 13.0833 20.366 13.0833 21.4706V27C13.0833 28.1046 12.1879 29 11.0833 29H5.33331C4.22874 29 3.33331 28.1046 3.33331 27V14.0389Z" fill="#3D405B" stroke="#3D405B" stroke-linejoin="round"/>
</svg>
