<svg width="64" height="64" viewBox="0 0 64 64" fill="none" xmlns="http://www.w3.org/2000/svg">
<g filter="url(#filter0_d_60_7)">
<rect x="4" width="56" height="56" fill="#F4F4F4"/>
</g>
<path d="M54 14.2537C54 11.6562 51.8364 9.54297 49.177 9.54297H48.2959C46.0725 9.54297 43.9189 10.239 42.1417 11.518C39.596 10.2566 36.1422 9.54297 32.5 9.54297C28.9051 9.54297 25.4802 10.2569 22.9395 11.519C21.1645 10.2552 18.939 9.54297 16.7041 9.54297H15.8229C13.1635 9.54297 11 11.6562 11 14.2537C11 15.512 11.5016 16.6949 12.4126 17.5847L16.2603 21.274L13.6035 25.1665V32.6189C13.6035 37.7098 17.1351 42.1277 22.1915 43.3625L24.2973 43.8767L26.9391 46.457H38.1448L40.7867 43.8767L42.8924 43.3625C47.9489 42.1278 51.4805 37.7099 51.4805 32.6189V25.1666L48.8183 21.2661L52.5874 17.5847C53.4983 16.695 54 15.5121 54 14.2537ZM50.8058 15.8446L47.6962 18.8819C47.6447 18.0421 47.9509 17.1916 48.5919 16.5654L46.8103 14.8253C44.9273 16.6646 44.6326 19.5704 46.1099 21.7346L48.0432 24.5672C46.1444 25.9938 43.8233 26.7695 41.4023 26.7695V29.2305C44.1254 29.2305 46.7458 28.4326 48.9609 26.9553V29.8383C47.6864 30.5106 46.3261 31.0073 44.9073 31.3164L45.4559 33.7183C46.6649 33.4549 47.8374 33.074 48.9609 32.5812V32.6189C48.9609 36.5785 46.2141 40.0146 42.2813 40.975L39.4984 41.6545L37.1013 43.9961H27.9827L25.5855 41.6546L22.8027 40.975C18.8698 40.0147 16.123 36.5785 16.123 32.6189V32.5813C17.2465 33.074 18.419 33.4549 19.6281 33.7184L20.1766 31.3165C18.758 31.0073 17.3977 30.5106 16.123 29.8383V26.9553C18.3383 28.4326 20.9586 29.2305 23.6816 29.2305V26.7695C21.2608 26.7695 18.9395 25.9938 17.0407 24.5672L18.9741 21.7345C20.4512 19.5703 20.1566 16.6645 18.2736 14.8252L16.492 16.5653C17.139 17.1974 17.4454 18.0581 17.3866 18.9055L14.1909 15.8413C13.7579 15.4167 13.5195 14.8532 13.5195 14.2537C13.5195 13.0131 14.5528 12.0039 15.8229 12.0039H16.7041C18.6413 12.0039 20.5639 12.7013 21.9788 13.9173L22.6703 14.5117L23.4598 14.0482C25.4074 12.9049 28.1929 12.191 31.2402 12.0361V14.4973C27.3442 14.6992 23.7656 15.8531 23.7656 18.1562H26.3875C26.877 17.7639 28.524 17.1203 31.2402 16.9621V19.3867H33.7598V16.9612C36.5108 17.1165 38.2123 17.755 38.755 18.1562H41.4023C41.4023 15.8485 37.7401 14.6944 33.7598 14.496V12.0366C36.8305 12.1943 39.7043 12.9211 41.6241 14.0481L42.4136 14.5116L43.1051 13.9172C44.5409 12.6835 46.3843 12.0039 48.2959 12.0039H49.177C50.4471 12.0039 51.4805 13.0131 51.4805 14.2537C51.4805 14.8547 51.2409 15.4197 50.8058 15.8446Z" fill="#745F9A"/>
<path d="M36.3633 22.3176V29.2305H28.7207V22.3176L22.9852 19.5166L21.8585 21.7177L26.2012 23.8387V28.4443C23.1541 29.8558 21.1621 32.8792 21.1621 36.2254V37.8438H23.6816V36.2253C23.6816 34.2342 24.6692 32.4032 26.2566 31.2644C26.6065 33.8713 28.6319 35.9703 31.2402 36.4894V37.0833L26.8976 39.2041L28.0243 41.4052L32.5046 39.2172L37.0671 41.4089L38.179 39.2005L33.7598 37.0777V36.4916C34.9668 36.256 36.0828 35.6832 36.9857 34.8212C38.0075 33.8456 38.6441 32.6042 38.8267 31.264C40.4145 32.4027 41.4023 34.2338 41.4023 36.2253V37.8438H43.9219V36.2253C43.9219 32.8791 41.9299 29.8557 38.8828 28.4442V23.8386L43.2255 21.7177L42.0987 19.5166L36.3633 22.3176ZM32.5 34.1524C30.8576 34.1524 29.4565 33.123 28.9365 31.6906H36.1335C35.5899 33.1083 34.1453 34.1524 32.5 34.1524Z" fill="#745F9A"/>
<defs>
<filter id="filter0_d_60_7" x="0" y="0" width="64" height="64" filterUnits="userSpaceOnUse" color-interpolation-filters="sRGB">
<feFlood flood-opacity="0" result="BackgroundImageFix"/>
<feColorMatrix in="SourceAlpha" type="matrix" values="0 0 0 0 0 0 0 0 0 0 0 0 0 0 0 0 0 0 127 0" result="hardAlpha"/>
<feOffset dy="4"/>
<feGaussianBlur stdDeviation="2"/>
<feColorMatrix type="matrix" values="0 0 0 0 0 0 0 0 0 0 0 0 0 0 0 0 0 0 0.25 0"/>
<feBlend mode="normal" in2="BackgroundImageFix" result="effect1_dropShadow_60_7"/>
<feBlend mode="normal" in="SourceGraphic" in2="effect1_dropShadow_60_7" result="shape"/>
</filter>
</defs>
</svg>
